<mxfile modified="2024-03-15T12:39:18.009Z" host="Electron" agent="Mozilla/5.0 (Windows NT 10.0; Win64; x64) AppleWebKit/537.36 (KHTML, like Gecko) draw.io/24.0.4 Chrome/120.0.6099.109 Electron/28.1.0 Safari/537.36" etag="V-R-OyOTyVsdHsLZ6HM0" version="24.0.4" type="device" pages="2">
  <diagram id="Ht1M8jgEwFfnCIfOTk4-" name="Sincrona">
    <mxGraphModel dx="1434" dy="844" grid="1" gridSize="10" guides="1" tooltips="1" connect="1" arrows="1" fold="1" page="1" pageScale="1" pageWidth="1169" pageHeight="827" math="0" shadow="0">
      <root>
        <mxCell id="0" />
        <mxCell id="1" parent="0" />
        <mxCell id="-QjtrjUzRDEMRZ5MF8oH-47" value="Sistema Transferência Bancária" style="text;html=1;resizable=0;points=[];autosize=1;align=left;verticalAlign=top;spacingTop=-4;fontSize=30;fontStyle=1" parent="1" vertex="1">
          <mxGeometry x="56.5" y="64.5" width="450" height="40" as="geometry" />
        </mxCell>
        <mxCell id="SCVMTBWpLvtzJIhz15lM-1" value="" style="line;strokeWidth=2;html=1;fontSize=14;" parent="1" vertex="1">
          <mxGeometry x="52.5" y="139.5" width="1060" height="10" as="geometry" />
        </mxCell>
        <mxCell id="9S87DK0r_s4XaVcUu-MT-26" value="" style="edgeStyle=orthogonalEdgeStyle;rounded=0;orthogonalLoop=1;jettySize=auto;html=1;" parent="1" source="9S87DK0r_s4XaVcUu-MT-6" target="9S87DK0r_s4XaVcUu-MT-23" edge="1">
          <mxGeometry relative="1" as="geometry" />
        </mxCell>
        <mxCell id="9S87DK0r_s4XaVcUu-MT-6" value="Canais" style="shape=actor;whiteSpace=wrap;html=1;labelPosition=center;verticalLabelPosition=bottom;align=center;verticalAlign=top;" parent="1" vertex="1">
          <mxGeometry x="56.5" y="217.5" width="43.5" height="60" as="geometry" />
        </mxCell>
        <mxCell id="9S87DK0r_s4XaVcUu-MT-7" value="Transferencia Bancaria Service&lt;div&gt;&lt;br&gt;&lt;/div&gt;" style="sketch=0;points=[[0,0,0],[0.25,0,0],[0.5,0,0],[0.75,0,0],[1,0,0],[0,1,0],[0.25,1,0],[0.5,1,0],[0.75,1,0],[1,1,0],[0,0.25,0],[0,0.5,0],[0,0.75,0],[1,0.25,0],[1,0.5,0],[1,0.75,0]];outlineConnect=0;fontColor=#FFFFFF;fillColor=#ED7100;strokeColor=#ffffff;dashed=0;verticalLabelPosition=bottom;verticalAlign=top;align=center;html=1;fontSize=12;fontStyle=0;aspect=fixed;shape=mxgraph.aws4.resourceIcon;resIcon=mxgraph.aws4.eks;labelPosition=center;" parent="1" vertex="1">
          <mxGeometry x="499.57" y="400.63" width="60.62" height="60.62" as="geometry" />
        </mxCell>
        <mxCell id="9S87DK0r_s4XaVcUu-MT-12" value="API Gateway" style="outlineConnect=0;dashed=0;verticalLabelPosition=bottom;verticalAlign=top;align=center;html=1;shape=mxgraph.aws3.api_gateway;fillColor=#D9A741;gradientColor=none;" parent="1" vertex="1">
          <mxGeometry x="342.5" y="393.69" width="60" height="74.5" as="geometry" />
        </mxCell>
        <mxCell id="9S87DK0r_s4XaVcUu-MT-30" value="" style="edgeStyle=orthogonalEdgeStyle;rounded=0;orthogonalLoop=1;jettySize=auto;html=1;" parent="1" source="9S87DK0r_s4XaVcUu-MT-23" target="9S87DK0r_s4XaVcUu-MT-28" edge="1">
          <mxGeometry relative="1" as="geometry" />
        </mxCell>
        <mxCell id="9S87DK0r_s4XaVcUu-MT-23" value="Network Load Balancer&lt;div&gt;&lt;br&gt;&lt;/div&gt;" style="outlineConnect=0;dashed=0;verticalLabelPosition=bottom;verticalAlign=top;align=center;html=1;shape=mxgraph.aws3.application_load_balancer;fillColor=#F58536;gradientColor=none;" parent="1" vertex="1">
          <mxGeometry x="214.5" y="217.5" width="55.5" height="60.63" as="geometry" />
        </mxCell>
        <mxCell id="9S87DK0r_s4XaVcUu-MT-31" value="Camada Inbound" style="swimlane;startSize=0;" parent="1" vertex="1">
          <mxGeometry x="180" y="160" width="250" height="200" as="geometry">
            <mxRectangle x="180" y="160" width="50" height="40" as="alternateBounds" />
          </mxGeometry>
        </mxCell>
        <mxCell id="9S87DK0r_s4XaVcUu-MT-28" value="VPC Endpoint" style="outlineConnect=0;dashed=0;verticalLabelPosition=bottom;verticalAlign=top;align=center;html=1;shape=mxgraph.aws3.virtual_private_cloud;fillColor=#F58534;gradientColor=none;" parent="9S87DK0r_s4XaVcUu-MT-31" vertex="1">
          <mxGeometry x="152.75" y="60.81999999999999" width="79.5" height="54" as="geometry" />
        </mxCell>
        <mxCell id="GHKiV6NayILvHLh-1HLZ-46" value="1" style="ellipse;whiteSpace=wrap;html=1;aspect=fixed;strokeWidth=2;fontFamily=Tahoma;spacingBottom=4;spacingRight=2;strokeColor=#d3d3d3;" vertex="1" parent="9S87DK0r_s4XaVcUu-MT-31">
          <mxGeometry x="115" y="47" width="20" height="20" as="geometry" />
        </mxCell>
        <mxCell id="9S87DK0r_s4XaVcUu-MT-39" value="" style="endArrow=classic;html=1;rounded=0;" parent="1" source="9S87DK0r_s4XaVcUu-MT-28" target="9S87DK0r_s4XaVcUu-MT-12" edge="1">
          <mxGeometry width="50" height="50" relative="1" as="geometry">
            <mxPoint x="460" y="410" as="sourcePoint" />
            <mxPoint x="510" y="360" as="targetPoint" />
          </mxGeometry>
        </mxCell>
        <mxCell id="9S87DK0r_s4XaVcUu-MT-45" value="" style="endArrow=classic;startArrow=classic;html=1;rounded=0;" parent="1" source="9S87DK0r_s4XaVcUu-MT-12" target="9S87DK0r_s4XaVcUu-MT-7" edge="1">
          <mxGeometry width="50" height="50" relative="1" as="geometry">
            <mxPoint x="460" y="510" as="sourcePoint" />
            <mxPoint x="510" y="460" as="targetPoint" />
          </mxGeometry>
        </mxCell>
        <mxCell id="GHKiV6NayILvHLh-1HLZ-1" value="API Consulta Nome Cliente" style="swimlane;startSize=0;" vertex="1" parent="1">
          <mxGeometry x="506.5" y="160" width="373.5" height="220" as="geometry">
            <mxRectangle x="180" y="160" width="50" height="40" as="alternateBounds" />
          </mxGeometry>
        </mxCell>
        <mxCell id="9S87DK0r_s4XaVcUu-MT-47" value="Redis Cache Nome Cliente&lt;div&gt;&lt;br&gt;&lt;/div&gt;" style="image;sketch=0;aspect=fixed;html=1;points=[];align=center;fontSize=12;image=img/lib/mscae/Cache_Redis_Product.svg;" parent="GHKiV6NayILvHLh-1HLZ-1" vertex="1">
          <mxGeometry x="53.5" y="67" width="50" height="42" as="geometry" />
        </mxCell>
        <mxCell id="9S87DK0r_s4XaVcUu-MT-49" value="API - Consulta Nome Cliente" style="rounded=0;whiteSpace=wrap;html=1;" parent="GHKiV6NayILvHLh-1HLZ-1" vertex="1">
          <mxGeometry x="200" y="57.5" width="127.5" height="61" as="geometry" />
        </mxCell>
        <mxCell id="GHKiV6NayILvHLh-1HLZ-49" value="4.1" style="ellipse;whiteSpace=wrap;html=1;aspect=fixed;strokeWidth=2;fontFamily=Tahoma;spacingBottom=4;spacingRight=2;strokeColor=#d3d3d3;" vertex="1" parent="GHKiV6NayILvHLh-1HLZ-1">
          <mxGeometry x="13.5" y="67" width="20" height="20" as="geometry" />
        </mxCell>
        <mxCell id="GHKiV6NayILvHLh-1HLZ-50" value="4" style="ellipse;whiteSpace=wrap;html=1;aspect=fixed;strokeWidth=2;fontFamily=Tahoma;spacingBottom=4;spacingRight=2;strokeColor=#d3d3d3;" vertex="1" parent="GHKiV6NayILvHLh-1HLZ-1">
          <mxGeometry x="173.5" y="67" width="20" height="20" as="geometry" />
        </mxCell>
        <mxCell id="GHKiV6NayILvHLh-1HLZ-3" value="4.1 Consultar nome cliente e após isso preencher o Cache Redis, para consultas futuras" style="rounded=1;whiteSpace=wrap;html=1;" vertex="1" parent="1">
          <mxGeometry x="890" y="157.5" width="150" height="92.5" as="geometry" />
        </mxCell>
        <mxCell id="GHKiV6NayILvHLh-1HLZ-4" value="Definição" style="swimlane;fontStyle=0;childLayout=stackLayout;horizontal=1;startSize=30;horizontalStack=0;resizeParent=1;resizeParentMax=0;resizeLast=0;collapsible=1;marginBottom=0;whiteSpace=wrap;html=1;" vertex="1" parent="1">
          <mxGeometry x="1100" y="149.5" width="200" height="180" as="geometry" />
        </mxCell>
        <mxCell id="GHKiV6NayILvHLh-1HLZ-5" value="4.1 Podemos utilizar Redis como&amp;nbsp;&lt;div&gt;um banco em memória para Cache, dessa forma podemos economizar chamadas na API de Pessoas e utilizar o nome armazenado do cache em caso de falhas&lt;/div&gt;" style="text;strokeColor=none;fillColor=none;align=left;verticalAlign=middle;spacingLeft=4;spacingRight=4;overflow=hidden;points=[[0,0.5],[1,0.5]];portConstraint=eastwest;rotatable=0;whiteSpace=wrap;html=1;" vertex="1" parent="GHKiV6NayILvHLh-1HLZ-4">
          <mxGeometry y="30" width="200" height="120" as="geometry" />
        </mxCell>
        <mxCell id="GHKiV6NayILvHLh-1HLZ-7" value="REDIS" style="text;strokeColor=none;fillColor=none;align=left;verticalAlign=middle;spacingLeft=4;spacingRight=4;overflow=hidden;points=[[0,0.5],[1,0.5]];portConstraint=eastwest;rotatable=0;whiteSpace=wrap;html=1;" vertex="1" parent="GHKiV6NayILvHLh-1HLZ-4">
          <mxGeometry y="150" width="200" height="30" as="geometry" />
        </mxCell>
        <mxCell id="GHKiV6NayILvHLh-1HLZ-20" value="Monitoração e Logs" style="swimlane;startSize=0;" vertex="1" parent="1">
          <mxGeometry x="660" y="610" width="240" height="90" as="geometry">
            <mxRectangle x="180" y="160" width="50" height="40" as="alternateBounds" />
          </mxGeometry>
        </mxCell>
        <mxCell id="GHKiV6NayILvHLh-1HLZ-21" value="CloudWatch" style="outlineConnect=0;dashed=0;verticalLabelPosition=bottom;verticalAlign=top;align=center;html=1;shape=mxgraph.aws3.cloudwatch;fillColor=#759C3E;gradientColor=none;" vertex="1" parent="GHKiV6NayILvHLh-1HLZ-20">
          <mxGeometry x="10" y="19.5" width="50" height="51" as="geometry" />
        </mxCell>
        <mxCell id="GHKiV6NayILvHLh-1HLZ-22" value="Grafana" style="sketch=0;points=[[0,0,0],[0.25,0,0],[0.5,0,0],[0.75,0,0],[1,0,0],[0,1,0],[0.25,1,0],[0.5,1,0],[0.75,1,0],[1,1,0],[0,0.25,0],[0,0.5,0],[0,0.75,0],[1,0.25,0],[1,0.5,0],[1,0.75,0]];points=[[0,0,0],[0.25,0,0],[0.5,0,0],[0.75,0,0],[1,0,0],[0,1,0],[0.25,1,0],[0.5,1,0],[0.75,1,0],[1,1,0],[0,0.25,0],[0,0.5,0],[0,0.75,0],[1,0.25,0],[1,0.5,0],[1,0.75,0]];outlineConnect=0;fontColor=#232F3E;fillColor=#E7157B;strokeColor=#ffffff;dashed=0;verticalLabelPosition=bottom;verticalAlign=top;align=center;html=1;fontSize=12;fontStyle=0;aspect=fixed;shape=mxgraph.aws4.resourceIcon;resIcon=mxgraph.aws4.managed_service_for_grafana;" vertex="1" parent="GHKiV6NayILvHLh-1HLZ-20">
          <mxGeometry x="180" y="19.5" width="50.5" height="50.5" as="geometry" />
        </mxCell>
        <mxCell id="GHKiV6NayILvHLh-1HLZ-23" value="" style="endArrow=none;dashed=1;html=1;dashPattern=1 3;strokeWidth=2;rounded=0;entryX=0;entryY=0.5;entryDx=0;entryDy=0;entryPerimeter=0;exitX=0.75;exitY=0.5;exitDx=0;exitDy=0;exitPerimeter=0;" edge="1" parent="GHKiV6NayILvHLh-1HLZ-20" source="GHKiV6NayILvHLh-1HLZ-21" target="GHKiV6NayILvHLh-1HLZ-22">
          <mxGeometry width="50" height="50" relative="1" as="geometry">
            <mxPoint x="-130" y="-67" as="sourcePoint" />
            <mxPoint x="-80" y="-117" as="targetPoint" />
          </mxGeometry>
        </mxCell>
        <mxCell id="GHKiV6NayILvHLh-1HLZ-25" value="Chamada de Database" style="swimlane;startSize=0;" vertex="1" parent="1">
          <mxGeometry x="330" y="622" width="277.5" height="118" as="geometry">
            <mxRectangle x="180" y="160" width="50" height="40" as="alternateBounds" />
          </mxGeometry>
        </mxCell>
        <mxCell id="9S87DK0r_s4XaVcUu-MT-62" value="&lt;font color=&quot;#000000&quot;&gt;Transferencia DB Aurora&lt;/font&gt;" style="sketch=0;points=[[0,0,0],[0.25,0,0],[0.5,0,0],[0.75,0,0],[1,0,0],[0,1,0],[0.25,1,0],[0.5,1,0],[0.75,1,0],[1,1,0],[0,0.25,0],[0,0.5,0],[0,0.75,0],[1,0.25,0],[1,0.5,0],[1,0.75,0]];outlineConnect=0;fontColor=#FFFFFF;fillColor=#C925D1;strokeColor=#ffffff;dashed=0;verticalLabelPosition=bottom;verticalAlign=top;align=center;html=1;fontSize=12;fontStyle=0;aspect=fixed;shape=mxgraph.aws4.resourceIcon;resIcon=mxgraph.aws4.aurora;" parent="GHKiV6NayILvHLh-1HLZ-25" vertex="1">
          <mxGeometry x="175.63" y="20" width="48.5" height="48.5" as="geometry" />
        </mxCell>
        <mxCell id="GHKiV6NayILvHLh-1HLZ-24" value="Clone DB Leitura" style="sketch=0;points=[[0,0,0],[0.25,0,0],[0.5,0,0],[0.75,0,0],[1,0,0],[0,1,0],[0.25,1,0],[0.5,1,0],[0.75,1,0],[1,1,0],[0,0.25,0],[0,0.5,0],[0,0.75,0],[1,0.25,0],[1,0.5,0],[1,0.75,0]];outlineConnect=0;fontColor=#232F3E;fillColor=#C925D1;strokeColor=#ffffff;dashed=0;verticalLabelPosition=bottom;verticalAlign=top;align=center;html=1;fontSize=12;fontStyle=0;aspect=fixed;shape=mxgraph.aws4.resourceIcon;resIcon=mxgraph.aws4.aurora;" vertex="1" parent="GHKiV6NayILvHLh-1HLZ-25">
          <mxGeometry x="40" y="20" width="48.5" height="48.5" as="geometry" />
        </mxCell>
        <mxCell id="GHKiV6NayILvHLh-1HLZ-51" value="5" style="ellipse;whiteSpace=wrap;html=1;aspect=fixed;strokeWidth=2;fontFamily=Tahoma;spacingBottom=4;spacingRight=2;strokeColor=#d3d3d3;" vertex="1" parent="GHKiV6NayILvHLh-1HLZ-25">
          <mxGeometry x="150" y="20" width="20" height="20" as="geometry" />
        </mxCell>
        <mxCell id="GHKiV6NayILvHLh-1HLZ-52" value="5.1" style="ellipse;whiteSpace=wrap;html=1;aspect=fixed;strokeWidth=2;fontFamily=Tahoma;spacingBottom=4;spacingRight=2;strokeColor=#d3d3d3;" vertex="1" parent="GHKiV6NayILvHLh-1HLZ-25">
          <mxGeometry x="10" y="20" width="20" height="20" as="geometry" />
        </mxCell>
        <mxCell id="Qk_4zvWbgZhKmeZRGHhx-2" value="7" style="ellipse;whiteSpace=wrap;html=1;aspect=fixed;strokeWidth=2;fontFamily=Tahoma;spacingBottom=4;spacingRight=2;strokeColor=#d3d3d3;" vertex="1" parent="GHKiV6NayILvHLh-1HLZ-25">
          <mxGeometry x="150" y="48.5" width="20" height="20" as="geometry" />
        </mxCell>
        <mxCell id="GHKiV6NayILvHLh-1HLZ-29" value="" style="endArrow=none;dashed=1;html=1;dashPattern=1 3;strokeWidth=2;rounded=0;exitX=0.75;exitY=0;exitDx=0;exitDy=0;exitPerimeter=0;entryX=0.25;entryY=1;entryDx=0;entryDy=0;entryPerimeter=0;" edge="1" parent="1" source="GHKiV6NayILvHLh-1HLZ-24" target="9S87DK0r_s4XaVcUu-MT-7">
          <mxGeometry width="50" height="50" relative="1" as="geometry">
            <mxPoint x="730" y="560" as="sourcePoint" />
            <mxPoint x="780" y="510" as="targetPoint" />
          </mxGeometry>
        </mxCell>
        <mxCell id="GHKiV6NayILvHLh-1HLZ-30" value="" style="endArrow=classic;html=1;rounded=0;exitX=0.5;exitY=1;exitDx=0;exitDy=0;exitPerimeter=0;entryX=0.5;entryY=0;entryDx=0;entryDy=0;entryPerimeter=0;" edge="1" parent="1" source="9S87DK0r_s4XaVcUu-MT-7" target="9S87DK0r_s4XaVcUu-MT-62">
          <mxGeometry width="50" height="50" relative="1" as="geometry">
            <mxPoint x="730" y="560" as="sourcePoint" />
            <mxPoint x="780" y="510" as="targetPoint" />
          </mxGeometry>
        </mxCell>
        <mxCell id="GHKiV6NayILvHLh-1HLZ-32" value="" style="endArrow=none;dashed=1;html=1;dashPattern=1 3;strokeWidth=2;rounded=0;exitX=1;exitY=1;exitDx=0;exitDy=0;exitPerimeter=0;entryX=0.35;entryY=0;entryDx=0;entryDy=0;entryPerimeter=0;" edge="1" parent="1" source="9S87DK0r_s4XaVcUu-MT-7" target="GHKiV6NayILvHLh-1HLZ-21">
          <mxGeometry width="50" height="50" relative="1" as="geometry">
            <mxPoint x="730" y="560" as="sourcePoint" />
            <mxPoint x="780" y="510" as="targetPoint" />
          </mxGeometry>
        </mxCell>
        <mxCell id="GHKiV6NayILvHLh-1HLZ-33" value="" style="endArrow=none;dashed=1;html=1;dashPattern=1 3;strokeWidth=2;rounded=0;entryX=0.56;entryY=1.095;entryDx=0;entryDy=0;entryPerimeter=0;exitX=0.5;exitY=0;exitDx=0;exitDy=0;exitPerimeter=0;" edge="1" parent="1" source="9S87DK0r_s4XaVcUu-MT-7" target="9S87DK0r_s4XaVcUu-MT-47">
          <mxGeometry width="50" height="50" relative="1" as="geometry">
            <mxPoint x="730" y="460" as="sourcePoint" />
            <mxPoint x="780" y="410" as="targetPoint" />
          </mxGeometry>
        </mxCell>
        <mxCell id="GHKiV6NayILvHLh-1HLZ-35" value="" style="endArrow=classic;html=1;rounded=0;exitX=1;exitY=0;exitDx=0;exitDy=0;exitPerimeter=0;entryX=0.5;entryY=1;entryDx=0;entryDy=0;" edge="1" parent="1" source="9S87DK0r_s4XaVcUu-MT-7" target="9S87DK0r_s4XaVcUu-MT-49">
          <mxGeometry width="50" height="50" relative="1" as="geometry">
            <mxPoint x="730" y="460" as="sourcePoint" />
            <mxPoint x="780" y="410" as="targetPoint" />
          </mxGeometry>
        </mxCell>
        <mxCell id="GHKiV6NayILvHLh-1HLZ-36" value="" style="endArrow=classic;html=1;rounded=0;exitX=1;exitY=0.5;exitDx=0;exitDy=0;exitPerimeter=0;entryX=0;entryY=0.25;entryDx=0;entryDy=0;" edge="1" parent="1" source="9S87DK0r_s4XaVcUu-MT-7" target="9S87DK0r_s4XaVcUu-MT-56">
          <mxGeometry width="50" height="50" relative="1" as="geometry">
            <mxPoint x="730" y="360" as="sourcePoint" />
            <mxPoint x="990" y="431.2297742545834" as="targetPoint" />
          </mxGeometry>
        </mxCell>
        <mxCell id="GHKiV6NayILvHLh-1HLZ-47" value="2" style="ellipse;whiteSpace=wrap;html=1;aspect=fixed;strokeWidth=2;fontFamily=Tahoma;spacingBottom=4;spacingRight=2;strokeColor=#d3d3d3;" vertex="1" parent="1">
          <mxGeometry x="290" y="400.63" width="20" height="20" as="geometry" />
        </mxCell>
        <mxCell id="GHKiV6NayILvHLh-1HLZ-48" value="3" style="ellipse;whiteSpace=wrap;html=1;aspect=fixed;strokeWidth=2;fontFamily=Tahoma;spacingBottom=4;spacingRight=2;strokeColor=#d3d3d3;" vertex="1" parent="1">
          <mxGeometry x="470" y="400.63" width="20" height="20" as="geometry" />
        </mxCell>
        <mxCell id="s4JFWUgaamSnkWs__HvP-1" value="Fluxo API para notificar BACEN" style="swimlane;startSize=0;" vertex="1" parent="1">
          <mxGeometry x="930" y="380" width="260" height="140" as="geometry">
            <mxRectangle x="180" y="160" width="50" height="40" as="alternateBounds" />
          </mxGeometry>
        </mxCell>
        <mxCell id="9S87DK0r_s4XaVcUu-MT-56" value="API - Valida Transferência Bacen" style="rounded=0;whiteSpace=wrap;html=1;" parent="s4JFWUgaamSnkWs__HvP-1" vertex="1">
          <mxGeometry x="52.5" y="34" width="130" height="60.5" as="geometry" />
        </mxCell>
        <mxCell id="Qk_4zvWbgZhKmeZRGHhx-1" value="6" style="ellipse;whiteSpace=wrap;html=1;aspect=fixed;strokeWidth=2;fontFamily=Tahoma;spacingBottom=4;spacingRight=2;strokeColor=#d3d3d3;" vertex="1" parent="s4JFWUgaamSnkWs__HvP-1">
          <mxGeometry x="25" y="20.629999999999995" width="20" height="20" as="geometry" />
        </mxCell>
        <mxCell id="s4JFWUgaamSnkWs__HvP-8" value="Utilização de Fluxo de Retry para 429" style="endArrow=classic;html=1;rounded=0;entryX=1;entryY=1;entryDx=0;entryDy=0;entryPerimeter=0;exitX=0;exitY=0.75;exitDx=0;exitDy=0;" edge="1" parent="1" source="9S87DK0r_s4XaVcUu-MT-56" target="9S87DK0r_s4XaVcUu-MT-7">
          <mxGeometry width="50" height="50" relative="1" as="geometry">
            <mxPoint x="820" y="560" as="sourcePoint" />
            <mxPoint x="870" y="510" as="targetPoint" />
          </mxGeometry>
        </mxCell>
        <mxCell id="cVQHU7-_MG4xoF6SOlTD-1" value="5.1 Utilizar clone de leitura para consultar as contas e saldo&lt;div&gt;&lt;br&gt;&lt;/div&gt;&lt;div&gt;7. Salvar a transferência realizada no DB&lt;/div&gt;" style="rounded=1;whiteSpace=wrap;html=1;" vertex="1" parent="1">
          <mxGeometry x="386.19" y="760" width="165.12" height="110" as="geometry" />
        </mxCell>
        <mxCell id="WOW-dVzAA-hDyp7vmxPp-1" value="Definição" style="swimlane;fontStyle=0;childLayout=stackLayout;horizontal=1;startSize=30;horizontalStack=0;resizeParent=1;resizeParentMax=0;resizeLast=0;collapsible=1;marginBottom=0;whiteSpace=wrap;html=1;" vertex="1" parent="1">
          <mxGeometry x="30" y="580" width="200" height="340" as="geometry" />
        </mxCell>
        <mxCell id="WOW-dVzAA-hDyp7vmxPp-2" value="5. Considerando que teremos um alto volume de throughput e os dados estão vindo de forma estruturada, podemos utilizar o AuroraDB, que fornece suporte de forma robusta, escalável e performática para operações de escrita e leitura.&amp;nbsp;&lt;div&gt;Podemos utilizar um clone para operações de leitura dessa forma isolando operações de escrita com ganho de performance.&lt;/div&gt;&lt;div&gt;&amp;nbsp;O AuroraDb também fornece um suporte melhor para querys mais complexas e de escrita, seu custo e perfomance acabam se sobresaindo em relação ao DynamoDB por exemplo para o nosso contexto.&lt;/div&gt;" style="text;strokeColor=none;fillColor=none;align=left;verticalAlign=middle;spacingLeft=4;spacingRight=4;overflow=hidden;points=[[0,0.5],[1,0.5]];portConstraint=eastwest;rotatable=0;whiteSpace=wrap;html=1;" vertex="1" parent="WOW-dVzAA-hDyp7vmxPp-1">
          <mxGeometry y="30" width="200" height="280" as="geometry" />
        </mxCell>
        <mxCell id="WOW-dVzAA-hDyp7vmxPp-3" value="MySQL Aurora DB" style="text;strokeColor=none;fillColor=none;align=left;verticalAlign=middle;spacingLeft=4;spacingRight=4;overflow=hidden;points=[[0,0.5],[1,0.5]];portConstraint=eastwest;rotatable=0;whiteSpace=wrap;html=1;" vertex="1" parent="WOW-dVzAA-hDyp7vmxPp-1">
          <mxGeometry y="310" width="200" height="30" as="geometry" />
        </mxCell>
      </root>
    </mxGraphModel>
  </diagram>
  <diagram name="(Sugestão) Assincrona" id="WrunXX0iJ4hSWcCeFT_j">
    <mxGraphModel dx="1434" dy="844" grid="1" gridSize="10" guides="1" tooltips="1" connect="1" arrows="1" fold="1" page="1" pageScale="1" pageWidth="1169" pageHeight="827" math="0" shadow="0">
      <root>
        <mxCell id="N9VV_pDzzx1IDmpYWsoz-0" />
        <mxCell id="N9VV_pDzzx1IDmpYWsoz-1" parent="N9VV_pDzzx1IDmpYWsoz-0" />
        <mxCell id="N9VV_pDzzx1IDmpYWsoz-2" value="Sistema Transferência Bancária" style="text;html=1;resizable=0;points=[];autosize=1;align=left;verticalAlign=top;spacingTop=-4;fontSize=30;fontStyle=1" vertex="1" parent="N9VV_pDzzx1IDmpYWsoz-1">
          <mxGeometry x="56.5" y="64.5" width="450" height="40" as="geometry" />
        </mxCell>
        <mxCell id="N9VV_pDzzx1IDmpYWsoz-3" value="" style="line;strokeWidth=2;html=1;fontSize=14;" vertex="1" parent="N9VV_pDzzx1IDmpYWsoz-1">
          <mxGeometry x="52.5" y="139.5" width="1060" height="10" as="geometry" />
        </mxCell>
        <mxCell id="N9VV_pDzzx1IDmpYWsoz-4" value="" style="edgeStyle=orthogonalEdgeStyle;rounded=0;orthogonalLoop=1;jettySize=auto;html=1;" edge="1" parent="N9VV_pDzzx1IDmpYWsoz-1" source="N9VV_pDzzx1IDmpYWsoz-5" target="N9VV_pDzzx1IDmpYWsoz-9">
          <mxGeometry relative="1" as="geometry" />
        </mxCell>
        <mxCell id="N9VV_pDzzx1IDmpYWsoz-5" value="Canais" style="shape=actor;whiteSpace=wrap;html=1;labelPosition=center;verticalLabelPosition=bottom;align=center;verticalAlign=top;" vertex="1" parent="N9VV_pDzzx1IDmpYWsoz-1">
          <mxGeometry x="56.5" y="217.5" width="43.5" height="60" as="geometry" />
        </mxCell>
        <mxCell id="N9VV_pDzzx1IDmpYWsoz-6" value="&lt;font color=&quot;#000000&quot;&gt;EKS TransferenciaService&lt;/font&gt;" style="sketch=0;points=[[0,0,0],[0.25,0,0],[0.5,0,0],[0.75,0,0],[1,0,0],[0,1,0],[0.25,1,0],[0.5,1,0],[0.75,1,0],[1,1,0],[0,0.25,0],[0,0.5,0],[0,0.75,0],[1,0.25,0],[1,0.5,0],[1,0.75,0]];outlineConnect=0;fontColor=#FFFFFF;fillColor=#ED7100;strokeColor=#ffffff;dashed=0;verticalLabelPosition=bottom;verticalAlign=top;align=center;html=1;fontSize=12;fontStyle=0;aspect=fixed;shape=mxgraph.aws4.resourceIcon;resIcon=mxgraph.aws4.eks;labelPosition=center;" vertex="1" parent="N9VV_pDzzx1IDmpYWsoz-1">
          <mxGeometry x="499.57" y="400.63" width="60.62" height="60.62" as="geometry" />
        </mxCell>
        <mxCell id="N9VV_pDzzx1IDmpYWsoz-7" value="API Gateway" style="outlineConnect=0;dashed=0;verticalLabelPosition=bottom;verticalAlign=top;align=center;html=1;shape=mxgraph.aws3.api_gateway;fillColor=#D9A741;gradientColor=none;" vertex="1" parent="N9VV_pDzzx1IDmpYWsoz-1">
          <mxGeometry x="342.5" y="393.69" width="60" height="74.5" as="geometry" />
        </mxCell>
        <mxCell id="N9VV_pDzzx1IDmpYWsoz-8" value="" style="edgeStyle=orthogonalEdgeStyle;rounded=0;orthogonalLoop=1;jettySize=auto;html=1;" edge="1" parent="N9VV_pDzzx1IDmpYWsoz-1" source="N9VV_pDzzx1IDmpYWsoz-9" target="N9VV_pDzzx1IDmpYWsoz-11">
          <mxGeometry relative="1" as="geometry" />
        </mxCell>
        <mxCell id="N9VV_pDzzx1IDmpYWsoz-9" value="Network Load Balancer&lt;div&gt;&lt;br&gt;&lt;/div&gt;" style="outlineConnect=0;dashed=0;verticalLabelPosition=bottom;verticalAlign=top;align=center;html=1;shape=mxgraph.aws3.application_load_balancer;fillColor=#F58536;gradientColor=none;" vertex="1" parent="N9VV_pDzzx1IDmpYWsoz-1">
          <mxGeometry x="214.5" y="217.5" width="55.5" height="60.63" as="geometry" />
        </mxCell>
        <mxCell id="N9VV_pDzzx1IDmpYWsoz-10" value="Camada Inbound" style="swimlane;startSize=0;" vertex="1" parent="N9VV_pDzzx1IDmpYWsoz-1">
          <mxGeometry x="180" y="160" width="250" height="200" as="geometry">
            <mxRectangle x="180" y="160" width="50" height="40" as="alternateBounds" />
          </mxGeometry>
        </mxCell>
        <mxCell id="N9VV_pDzzx1IDmpYWsoz-11" value="VPC Endpoint" style="outlineConnect=0;dashed=0;verticalLabelPosition=bottom;verticalAlign=top;align=center;html=1;shape=mxgraph.aws3.virtual_private_cloud;fillColor=#F58534;gradientColor=none;" vertex="1" parent="N9VV_pDzzx1IDmpYWsoz-10">
          <mxGeometry x="152.75" y="60.81999999999999" width="79.5" height="54" as="geometry" />
        </mxCell>
        <mxCell id="N9VV_pDzzx1IDmpYWsoz-12" value="1" style="ellipse;whiteSpace=wrap;html=1;aspect=fixed;strokeWidth=2;fontFamily=Tahoma;spacingBottom=4;spacingRight=2;strokeColor=#d3d3d3;" vertex="1" parent="N9VV_pDzzx1IDmpYWsoz-10">
          <mxGeometry x="115" y="47" width="20" height="20" as="geometry" />
        </mxCell>
        <mxCell id="N9VV_pDzzx1IDmpYWsoz-13" value="" style="endArrow=classic;html=1;rounded=0;" edge="1" parent="N9VV_pDzzx1IDmpYWsoz-1" source="N9VV_pDzzx1IDmpYWsoz-11" target="N9VV_pDzzx1IDmpYWsoz-7">
          <mxGeometry width="50" height="50" relative="1" as="geometry">
            <mxPoint x="460" y="410" as="sourcePoint" />
            <mxPoint x="510" y="360" as="targetPoint" />
          </mxGeometry>
        </mxCell>
        <mxCell id="N9VV_pDzzx1IDmpYWsoz-14" value="" style="endArrow=classic;startArrow=classic;html=1;rounded=0;" edge="1" parent="N9VV_pDzzx1IDmpYWsoz-1" source="N9VV_pDzzx1IDmpYWsoz-7" target="N9VV_pDzzx1IDmpYWsoz-6">
          <mxGeometry width="50" height="50" relative="1" as="geometry">
            <mxPoint x="460" y="510" as="sourcePoint" />
            <mxPoint x="510" y="460" as="targetPoint" />
          </mxGeometry>
        </mxCell>
        <mxCell id="N9VV_pDzzx1IDmpYWsoz-15" value="API Consulta Nome Cliente" style="swimlane;startSize=0;" vertex="1" parent="N9VV_pDzzx1IDmpYWsoz-1">
          <mxGeometry x="506.5" y="160" width="373.5" height="220" as="geometry">
            <mxRectangle x="180" y="160" width="50" height="40" as="alternateBounds" />
          </mxGeometry>
        </mxCell>
        <mxCell id="N9VV_pDzzx1IDmpYWsoz-16" value="Redis Cache Nome Cliente&lt;div&gt;&lt;br&gt;&lt;/div&gt;" style="image;sketch=0;aspect=fixed;html=1;points=[];align=center;fontSize=12;image=img/lib/mscae/Cache_Redis_Product.svg;" vertex="1" parent="N9VV_pDzzx1IDmpYWsoz-15">
          <mxGeometry x="53.5" y="67" width="50" height="42" as="geometry" />
        </mxCell>
        <mxCell id="N9VV_pDzzx1IDmpYWsoz-17" value="API - Consulta Nome Cliente" style="rounded=0;whiteSpace=wrap;html=1;" vertex="1" parent="N9VV_pDzzx1IDmpYWsoz-15">
          <mxGeometry x="200" y="57.5" width="127.5" height="61" as="geometry" />
        </mxCell>
        <mxCell id="N9VV_pDzzx1IDmpYWsoz-18" value="4.1" style="ellipse;whiteSpace=wrap;html=1;aspect=fixed;strokeWidth=2;fontFamily=Tahoma;spacingBottom=4;spacingRight=2;strokeColor=#d3d3d3;" vertex="1" parent="N9VV_pDzzx1IDmpYWsoz-15">
          <mxGeometry x="13.5" y="67" width="20" height="20" as="geometry" />
        </mxCell>
        <mxCell id="N9VV_pDzzx1IDmpYWsoz-19" value="4" style="ellipse;whiteSpace=wrap;html=1;aspect=fixed;strokeWidth=2;fontFamily=Tahoma;spacingBottom=4;spacingRight=2;strokeColor=#d3d3d3;" vertex="1" parent="N9VV_pDzzx1IDmpYWsoz-15">
          <mxGeometry x="173.5" y="67" width="20" height="20" as="geometry" />
        </mxCell>
        <mxCell id="N9VV_pDzzx1IDmpYWsoz-20" value="4.1 Consultar nome cliente e após isso preencher o Cache Redis, para consultas futuras" style="rounded=1;whiteSpace=wrap;html=1;" vertex="1" parent="N9VV_pDzzx1IDmpYWsoz-1">
          <mxGeometry x="890" y="157.5" width="150" height="92.5" as="geometry" />
        </mxCell>
        <mxCell id="N9VV_pDzzx1IDmpYWsoz-21" value="Definição" style="swimlane;fontStyle=0;childLayout=stackLayout;horizontal=1;startSize=30;horizontalStack=0;resizeParent=1;resizeParentMax=0;resizeLast=0;collapsible=1;marginBottom=0;whiteSpace=wrap;html=1;" vertex="1" parent="N9VV_pDzzx1IDmpYWsoz-1">
          <mxGeometry x="1130" y="149.5" width="200" height="180" as="geometry" />
        </mxCell>
        <mxCell id="N9VV_pDzzx1IDmpYWsoz-22" value="4.1 Podemos utilizar Redis como&amp;nbsp;&lt;div&gt;um banco em memória para Cache, dessa forma podemos economizar chamadas na API de Pessoas e utilizar o nome armazenado do cache em caso de falhas&lt;/div&gt;" style="text;strokeColor=none;fillColor=none;align=left;verticalAlign=middle;spacingLeft=4;spacingRight=4;overflow=hidden;points=[[0,0.5],[1,0.5]];portConstraint=eastwest;rotatable=0;whiteSpace=wrap;html=1;" vertex="1" parent="N9VV_pDzzx1IDmpYWsoz-21">
          <mxGeometry y="30" width="200" height="120" as="geometry" />
        </mxCell>
        <mxCell id="N9VV_pDzzx1IDmpYWsoz-23" value="REDIS" style="text;strokeColor=none;fillColor=none;align=left;verticalAlign=middle;spacingLeft=4;spacingRight=4;overflow=hidden;points=[[0,0.5],[1,0.5]];portConstraint=eastwest;rotatable=0;whiteSpace=wrap;html=1;" vertex="1" parent="N9VV_pDzzx1IDmpYWsoz-21">
          <mxGeometry y="150" width="200" height="30" as="geometry" />
        </mxCell>
        <mxCell id="N9VV_pDzzx1IDmpYWsoz-24" value="Fluxo API para notificar BACEN" style="swimlane;startSize=0;" vertex="1" parent="N9VV_pDzzx1IDmpYWsoz-1">
          <mxGeometry x="930" y="380" width="370" height="259.25" as="geometry">
            <mxRectangle x="180" y="160" width="50" height="40" as="alternateBounds" />
          </mxGeometry>
        </mxCell>
        <mxCell id="N9VV_pDzzx1IDmpYWsoz-25" value="SNS Bacen" style="sketch=0;points=[[0,0,0],[0.25,0,0],[0.5,0,0],[0.75,0,0],[1,0,0],[0,1,0],[0.25,1,0],[0.5,1,0],[0.75,1,0],[1,1,0],[0,0.25,0],[0,0.5,0],[0,0.75,0],[1,0.25,0],[1,0.5,0],[1,0.75,0]];outlineConnect=0;fontColor=#232F3E;fillColor=#E7157B;strokeColor=#ffffff;dashed=0;verticalLabelPosition=bottom;verticalAlign=top;align=center;html=1;fontSize=12;fontStyle=0;aspect=fixed;shape=mxgraph.aws4.resourceIcon;resIcon=mxgraph.aws4.sns;" vertex="1" parent="N9VV_pDzzx1IDmpYWsoz-24">
          <mxGeometry x="60" y="21.25" width="60" height="60" as="geometry" />
        </mxCell>
        <mxCell id="N9VV_pDzzx1IDmpYWsoz-26" value="&lt;font color=&quot;#000000&quot;&gt;SQS Bacen&lt;/font&gt;" style="sketch=0;points=[[0,0,0],[0.25,0,0],[0.5,0,0],[0.75,0,0],[1,0,0],[0,1,0],[0.25,1,0],[0.5,1,0],[0.75,1,0],[1,1,0],[0,0.25,0],[0,0.5,0],[0,0.75,0],[1,0.25,0],[1,0.5,0],[1,0.75,0]];outlineConnect=0;fontColor=#FFFFFF;fillColor=#E7157B;strokeColor=#ffffff;dashed=0;verticalLabelPosition=bottom;verticalAlign=top;align=center;html=1;fontSize=12;fontStyle=0;aspect=fixed;shape=mxgraph.aws4.resourceIcon;resIcon=mxgraph.aws4.sqs;" vertex="1" parent="N9VV_pDzzx1IDmpYWsoz-24">
          <mxGeometry x="240" y="21.250000000000004" width="60.5" height="60.5" as="geometry" />
        </mxCell>
        <mxCell id="N9VV_pDzzx1IDmpYWsoz-28" value="" style="endArrow=classic;html=1;rounded=0;entryX=0;entryY=0.5;entryDx=0;entryDy=0;entryPerimeter=0;" edge="1" parent="N9VV_pDzzx1IDmpYWsoz-24" source="N9VV_pDzzx1IDmpYWsoz-25" target="N9VV_pDzzx1IDmpYWsoz-26">
          <mxGeometry width="50" height="50" relative="1" as="geometry">
            <mxPoint x="-210" y="-20" as="sourcePoint" />
            <mxPoint x="-160" y="-70" as="targetPoint" />
          </mxGeometry>
        </mxCell>
        <mxCell id="N9VV_pDzzx1IDmpYWsoz-30" value="6" style="ellipse;whiteSpace=wrap;html=1;aspect=fixed;strokeWidth=2;fontFamily=Tahoma;spacingBottom=4;spacingRight=2;strokeColor=#d3d3d3;" vertex="1" parent="N9VV_pDzzx1IDmpYWsoz-24">
          <mxGeometry x="30" y="21.25" width="20" height="20" as="geometry" />
        </mxCell>
        <mxCell id="N9VV_pDzzx1IDmpYWsoz-31" value="7" style="ellipse;whiteSpace=wrap;html=1;aspect=fixed;strokeWidth=2;fontFamily=Tahoma;spacingBottom=4;spacingRight=2;strokeColor=#d3d3d3;" vertex="1" parent="N9VV_pDzzx1IDmpYWsoz-24">
          <mxGeometry x="320" y="34" width="20" height="20" as="geometry" />
        </mxCell>
        <mxCell id="N9VV_pDzzx1IDmpYWsoz-27" value="API - Valida Transferência Bacen" style="rounded=0;whiteSpace=wrap;html=1;" vertex="1" parent="N9VV_pDzzx1IDmpYWsoz-24">
          <mxGeometry x="20" y="160" width="130" height="60.5" as="geometry" />
        </mxCell>
        <mxCell id="gZyZ-1EEiAtwJOU30CMo-6" value="ECS Valida Bacen Service" style="sketch=0;points=[[0,0,0],[0.25,0,0],[0.5,0,0],[0.75,0,0],[1,0,0],[0,1,0],[0.25,1,0],[0.5,1,0],[0.75,1,0],[1,1,0],[0,0.25,0],[0,0.5,0],[0,0.75,0],[1,0.25,0],[1,0.5,0],[1,0.75,0]];outlineConnect=0;fontColor=#232F3E;fillColor=#ED7100;strokeColor=#ffffff;dashed=0;verticalLabelPosition=bottom;verticalAlign=top;align=center;html=1;fontSize=12;fontStyle=0;aspect=fixed;shape=mxgraph.aws4.resourceIcon;resIcon=mxgraph.aws4.ecs;" vertex="1" parent="N9VV_pDzzx1IDmpYWsoz-24">
          <mxGeometry x="240" y="160" width="61.5" height="61.5" as="geometry" />
        </mxCell>
        <mxCell id="gZyZ-1EEiAtwJOU30CMo-7" value="" style="endArrow=classic;html=1;rounded=0;entryX=0.5;entryY=0;entryDx=0;entryDy=0;entryPerimeter=0;" edge="1" parent="N9VV_pDzzx1IDmpYWsoz-24" source="N9VV_pDzzx1IDmpYWsoz-26" target="gZyZ-1EEiAtwJOU30CMo-6">
          <mxGeometry width="50" height="50" relative="1" as="geometry">
            <mxPoint x="-60" y="280" as="sourcePoint" />
            <mxPoint x="-10" y="230" as="targetPoint" />
          </mxGeometry>
        </mxCell>
        <mxCell id="gZyZ-1EEiAtwJOU30CMo-8" value="Retry 429" style="endArrow=classic;html=1;rounded=0;entryX=1;entryY=0.5;entryDx=0;entryDy=0;exitX=0;exitY=0.5;exitDx=0;exitDy=0;exitPerimeter=0;" edge="1" parent="N9VV_pDzzx1IDmpYWsoz-24" source="gZyZ-1EEiAtwJOU30CMo-6" target="N9VV_pDzzx1IDmpYWsoz-27">
          <mxGeometry width="50" height="50" relative="1" as="geometry">
            <mxPoint x="-60" y="280" as="sourcePoint" />
            <mxPoint x="-10" y="230" as="targetPoint" />
          </mxGeometry>
        </mxCell>
        <mxCell id="gZyZ-1EEiAtwJOU30CMo-9" value="" style="endArrow=classic;html=1;rounded=0;entryX=0;entryY=0.75;entryDx=0;entryDy=0;entryPerimeter=0;exitX=1;exitY=0.75;exitDx=0;exitDy=0;" edge="1" parent="N9VV_pDzzx1IDmpYWsoz-24" source="N9VV_pDzzx1IDmpYWsoz-27" target="gZyZ-1EEiAtwJOU30CMo-6">
          <mxGeometry width="50" height="50" relative="1" as="geometry">
            <mxPoint x="-60" y="280" as="sourcePoint" />
            <mxPoint x="-10" y="230" as="targetPoint" />
          </mxGeometry>
        </mxCell>
        <mxCell id="gZyZ-1EEiAtwJOU30CMo-13" value="8" style="ellipse;whiteSpace=wrap;html=1;aspect=fixed;strokeWidth=2;fontFamily=Tahoma;spacingBottom=4;spacingRight=2;strokeColor=#d3d3d3;" vertex="1" parent="N9VV_pDzzx1IDmpYWsoz-24">
          <mxGeometry x="320" y="170" width="20" height="20" as="geometry" />
        </mxCell>
        <mxCell id="gZyZ-1EEiAtwJOU30CMo-16" value="9" style="ellipse;whiteSpace=wrap;html=1;aspect=fixed;strokeWidth=2;fontFamily=Tahoma;spacingBottom=4;spacingRight=2;strokeColor=#d3d3d3;" vertex="1" parent="N9VV_pDzzx1IDmpYWsoz-24">
          <mxGeometry x="75" y="230" width="20" height="20" as="geometry" />
        </mxCell>
        <mxCell id="N9VV_pDzzx1IDmpYWsoz-33" value="&lt;font color=&quot;#000000&quot;&gt;SQS Bacen DLQ&lt;/font&gt;" style="sketch=0;points=[[0,0,0],[0.25,0,0],[0.5,0,0],[0.75,0,0],[1,0,0],[0,1,0],[0.25,1,0],[0.5,1,0],[0.75,1,0],[1,1,0],[0,0.25,0],[0,0.5,0],[0,0.75,0],[1,0.25,0],[1,0.5,0],[1,0.75,0]];outlineConnect=0;fontColor=#FFFFFF;fillColor=#E7157B;strokeColor=#ffffff;dashed=0;verticalLabelPosition=bottom;verticalAlign=top;align=center;html=1;fontSize=12;fontStyle=0;aspect=fixed;shape=mxgraph.aws4.resourceIcon;resIcon=mxgraph.aws4.sqs;" vertex="1" parent="N9VV_pDzzx1IDmpYWsoz-1">
          <mxGeometry x="979.5" y="719.75" width="60.5" height="60.5" as="geometry" />
        </mxCell>
        <mxCell id="N9VV_pDzzx1IDmpYWsoz-35" value="Monitoração e Logs" style="swimlane;startSize=0;" vertex="1" parent="N9VV_pDzzx1IDmpYWsoz-1">
          <mxGeometry x="1160" y="870" width="240" height="110" as="geometry">
            <mxRectangle x="180" y="160" width="50" height="40" as="alternateBounds" />
          </mxGeometry>
        </mxCell>
        <mxCell id="N9VV_pDzzx1IDmpYWsoz-36" value="CloudWatch" style="outlineConnect=0;dashed=0;verticalLabelPosition=bottom;verticalAlign=top;align=center;html=1;shape=mxgraph.aws3.cloudwatch;fillColor=#759C3E;gradientColor=none;" vertex="1" parent="N9VV_pDzzx1IDmpYWsoz-35">
          <mxGeometry x="20" y="29.5" width="50" height="51" as="geometry" />
        </mxCell>
        <mxCell id="N9VV_pDzzx1IDmpYWsoz-37" value="Grafana" style="sketch=0;points=[[0,0,0],[0.25,0,0],[0.5,0,0],[0.75,0,0],[1,0,0],[0,1,0],[0.25,1,0],[0.5,1,0],[0.75,1,0],[1,1,0],[0,0.25,0],[0,0.5,0],[0,0.75,0],[1,0.25,0],[1,0.5,0],[1,0.75,0]];points=[[0,0,0],[0.25,0,0],[0.5,0,0],[0.75,0,0],[1,0,0],[0,1,0],[0.25,1,0],[0.5,1,0],[0.75,1,0],[1,1,0],[0,0.25,0],[0,0.5,0],[0,0.75,0],[1,0.25,0],[1,0.5,0],[1,0.75,0]];outlineConnect=0;fontColor=#232F3E;fillColor=#E7157B;strokeColor=#ffffff;dashed=0;verticalLabelPosition=bottom;verticalAlign=top;align=center;html=1;fontSize=12;fontStyle=0;aspect=fixed;shape=mxgraph.aws4.resourceIcon;resIcon=mxgraph.aws4.managed_service_for_grafana;" vertex="1" parent="N9VV_pDzzx1IDmpYWsoz-35">
          <mxGeometry x="170" y="30" width="51" height="51" as="geometry" />
        </mxCell>
        <mxCell id="N9VV_pDzzx1IDmpYWsoz-38" value="" style="endArrow=none;dashed=1;html=1;dashPattern=1 3;strokeWidth=2;rounded=0;entryX=0;entryY=0.5;entryDx=0;entryDy=0;entryPerimeter=0;exitX=0.75;exitY=0.5;exitDx=0;exitDy=0;exitPerimeter=0;" edge="1" parent="N9VV_pDzzx1IDmpYWsoz-35" source="N9VV_pDzzx1IDmpYWsoz-36" target="N9VV_pDzzx1IDmpYWsoz-37">
          <mxGeometry width="50" height="50" relative="1" as="geometry">
            <mxPoint x="-130" y="-67" as="sourcePoint" />
            <mxPoint x="-80" y="-117" as="targetPoint" />
          </mxGeometry>
        </mxCell>
        <mxCell id="N9VV_pDzzx1IDmpYWsoz-39" value="11. Poderiamos paralelizar mais de uma lambda, e utilizar o EventBridge para schedular conforme a necessidade" style="rounded=1;whiteSpace=wrap;html=1;" vertex="1" parent="N9VV_pDzzx1IDmpYWsoz-1">
          <mxGeometry x="1290" y="706" width="160" height="88" as="geometry" />
        </mxCell>
        <mxCell id="N9VV_pDzzx1IDmpYWsoz-40" value="Monitoração e Logs" style="swimlane;startSize=0;" vertex="1" parent="N9VV_pDzzx1IDmpYWsoz-1">
          <mxGeometry x="660" y="610" width="240" height="90" as="geometry">
            <mxRectangle x="180" y="160" width="50" height="40" as="alternateBounds" />
          </mxGeometry>
        </mxCell>
        <mxCell id="N9VV_pDzzx1IDmpYWsoz-41" value="CloudWatch" style="outlineConnect=0;dashed=0;verticalLabelPosition=bottom;verticalAlign=top;align=center;html=1;shape=mxgraph.aws3.cloudwatch;fillColor=#759C3E;gradientColor=none;" vertex="1" parent="N9VV_pDzzx1IDmpYWsoz-40">
          <mxGeometry x="10" y="19.5" width="50" height="51" as="geometry" />
        </mxCell>
        <mxCell id="N9VV_pDzzx1IDmpYWsoz-42" value="Grafana" style="sketch=0;points=[[0,0,0],[0.25,0,0],[0.5,0,0],[0.75,0,0],[1,0,0],[0,1,0],[0.25,1,0],[0.5,1,0],[0.75,1,0],[1,1,0],[0,0.25,0],[0,0.5,0],[0,0.75,0],[1,0.25,0],[1,0.5,0],[1,0.75,0]];points=[[0,0,0],[0.25,0,0],[0.5,0,0],[0.75,0,0],[1,0,0],[0,1,0],[0.25,1,0],[0.5,1,0],[0.75,1,0],[1,1,0],[0,0.25,0],[0,0.5,0],[0,0.75,0],[1,0.25,0],[1,0.5,0],[1,0.75,0]];outlineConnect=0;fontColor=#232F3E;fillColor=#E7157B;strokeColor=#ffffff;dashed=0;verticalLabelPosition=bottom;verticalAlign=top;align=center;html=1;fontSize=12;fontStyle=0;aspect=fixed;shape=mxgraph.aws4.resourceIcon;resIcon=mxgraph.aws4.managed_service_for_grafana;" vertex="1" parent="N9VV_pDzzx1IDmpYWsoz-40">
          <mxGeometry x="180" y="19.5" width="50.5" height="50.5" as="geometry" />
        </mxCell>
        <mxCell id="N9VV_pDzzx1IDmpYWsoz-43" value="" style="endArrow=none;dashed=1;html=1;dashPattern=1 3;strokeWidth=2;rounded=0;entryX=0;entryY=0.5;entryDx=0;entryDy=0;entryPerimeter=0;exitX=0.75;exitY=0.5;exitDx=0;exitDy=0;exitPerimeter=0;" edge="1" parent="N9VV_pDzzx1IDmpYWsoz-40" source="N9VV_pDzzx1IDmpYWsoz-41" target="N9VV_pDzzx1IDmpYWsoz-42">
          <mxGeometry width="50" height="50" relative="1" as="geometry">
            <mxPoint x="-130" y="-67" as="sourcePoint" />
            <mxPoint x="-80" y="-117" as="targetPoint" />
          </mxGeometry>
        </mxCell>
        <mxCell id="N9VV_pDzzx1IDmpYWsoz-44" value="Chamada de Database" style="swimlane;startSize=0;" vertex="1" parent="N9VV_pDzzx1IDmpYWsoz-1">
          <mxGeometry x="330" y="622" width="277.5" height="118" as="geometry">
            <mxRectangle x="180" y="160" width="50" height="40" as="alternateBounds" />
          </mxGeometry>
        </mxCell>
        <mxCell id="N9VV_pDzzx1IDmpYWsoz-45" value="&lt;font color=&quot;#000000&quot;&gt;Transferencia DB Aurora&lt;/font&gt;" style="sketch=0;points=[[0,0,0],[0.25,0,0],[0.5,0,0],[0.75,0,0],[1,0,0],[0,1,0],[0.25,1,0],[0.5,1,0],[0.75,1,0],[1,1,0],[0,0.25,0],[0,0.5,0],[0,0.75,0],[1,0.25,0],[1,0.5,0],[1,0.75,0]];outlineConnect=0;fontColor=#FFFFFF;fillColor=#C925D1;strokeColor=#ffffff;dashed=0;verticalLabelPosition=bottom;verticalAlign=top;align=center;html=1;fontSize=12;fontStyle=0;aspect=fixed;shape=mxgraph.aws4.resourceIcon;resIcon=mxgraph.aws4.aurora;" vertex="1" parent="N9VV_pDzzx1IDmpYWsoz-44">
          <mxGeometry x="175.63" y="20" width="48.5" height="48.5" as="geometry" />
        </mxCell>
        <mxCell id="N9VV_pDzzx1IDmpYWsoz-46" value="Clone DB Leitura" style="sketch=0;points=[[0,0,0],[0.25,0,0],[0.5,0,0],[0.75,0,0],[1,0,0],[0,1,0],[0.25,1,0],[0.5,1,0],[0.75,1,0],[1,1,0],[0,0.25,0],[0,0.5,0],[0,0.75,0],[1,0.25,0],[1,0.5,0],[1,0.75,0]];outlineConnect=0;fontColor=#232F3E;fillColor=#C925D1;strokeColor=#ffffff;dashed=0;verticalLabelPosition=bottom;verticalAlign=top;align=center;html=1;fontSize=12;fontStyle=0;aspect=fixed;shape=mxgraph.aws4.resourceIcon;resIcon=mxgraph.aws4.aurora;" vertex="1" parent="N9VV_pDzzx1IDmpYWsoz-44">
          <mxGeometry x="40" y="20" width="48.5" height="48.5" as="geometry" />
        </mxCell>
        <mxCell id="N9VV_pDzzx1IDmpYWsoz-47" value="5" style="ellipse;whiteSpace=wrap;html=1;aspect=fixed;strokeWidth=2;fontFamily=Tahoma;spacingBottom=4;spacingRight=2;strokeColor=#d3d3d3;" vertex="1" parent="N9VV_pDzzx1IDmpYWsoz-44">
          <mxGeometry x="150" y="20" width="20" height="20" as="geometry" />
        </mxCell>
        <mxCell id="N9VV_pDzzx1IDmpYWsoz-48" value="5.1" style="ellipse;whiteSpace=wrap;html=1;aspect=fixed;strokeWidth=2;fontFamily=Tahoma;spacingBottom=4;spacingRight=2;strokeColor=#d3d3d3;" vertex="1" parent="N9VV_pDzzx1IDmpYWsoz-44">
          <mxGeometry x="10" y="20" width="20" height="20" as="geometry" />
        </mxCell>
        <mxCell id="N9VV_pDzzx1IDmpYWsoz-49" value="" style="endArrow=none;dashed=1;html=1;dashPattern=1 3;strokeWidth=2;rounded=0;exitX=0.75;exitY=0;exitDx=0;exitDy=0;exitPerimeter=0;entryX=0.25;entryY=1;entryDx=0;entryDy=0;entryPerimeter=0;" edge="1" parent="N9VV_pDzzx1IDmpYWsoz-1" source="N9VV_pDzzx1IDmpYWsoz-46" target="N9VV_pDzzx1IDmpYWsoz-6">
          <mxGeometry width="50" height="50" relative="1" as="geometry">
            <mxPoint x="730" y="560" as="sourcePoint" />
            <mxPoint x="780" y="510" as="targetPoint" />
          </mxGeometry>
        </mxCell>
        <mxCell id="N9VV_pDzzx1IDmpYWsoz-50" value="" style="endArrow=classic;html=1;rounded=0;exitX=0.5;exitY=1;exitDx=0;exitDy=0;exitPerimeter=0;entryX=0.5;entryY=0;entryDx=0;entryDy=0;entryPerimeter=0;" edge="1" parent="N9VV_pDzzx1IDmpYWsoz-1" source="N9VV_pDzzx1IDmpYWsoz-6" target="N9VV_pDzzx1IDmpYWsoz-45">
          <mxGeometry width="50" height="50" relative="1" as="geometry">
            <mxPoint x="730" y="560" as="sourcePoint" />
            <mxPoint x="780" y="510" as="targetPoint" />
          </mxGeometry>
        </mxCell>
        <mxCell id="N9VV_pDzzx1IDmpYWsoz-51" value="" style="endArrow=none;dashed=1;html=1;dashPattern=1 3;strokeWidth=2;rounded=0;exitX=1;exitY=1;exitDx=0;exitDy=0;exitPerimeter=0;entryX=0.35;entryY=0;entryDx=0;entryDy=0;entryPerimeter=0;" edge="1" parent="N9VV_pDzzx1IDmpYWsoz-1" source="N9VV_pDzzx1IDmpYWsoz-6" target="N9VV_pDzzx1IDmpYWsoz-41">
          <mxGeometry width="50" height="50" relative="1" as="geometry">
            <mxPoint x="730" y="560" as="sourcePoint" />
            <mxPoint x="780" y="510" as="targetPoint" />
          </mxGeometry>
        </mxCell>
        <mxCell id="N9VV_pDzzx1IDmpYWsoz-52" value="" style="endArrow=none;dashed=1;html=1;dashPattern=1 3;strokeWidth=2;rounded=0;entryX=0.56;entryY=1.095;entryDx=0;entryDy=0;entryPerimeter=0;exitX=0.5;exitY=0;exitDx=0;exitDy=0;exitPerimeter=0;" edge="1" parent="N9VV_pDzzx1IDmpYWsoz-1" source="N9VV_pDzzx1IDmpYWsoz-6" target="N9VV_pDzzx1IDmpYWsoz-16">
          <mxGeometry width="50" height="50" relative="1" as="geometry">
            <mxPoint x="730" y="460" as="sourcePoint" />
            <mxPoint x="780" y="410" as="targetPoint" />
          </mxGeometry>
        </mxCell>
        <mxCell id="N9VV_pDzzx1IDmpYWsoz-53" value="" style="endArrow=classic;html=1;rounded=0;exitX=1;exitY=0;exitDx=0;exitDy=0;exitPerimeter=0;entryX=0.5;entryY=1;entryDx=0;entryDy=0;" edge="1" parent="N9VV_pDzzx1IDmpYWsoz-1" source="N9VV_pDzzx1IDmpYWsoz-6" target="N9VV_pDzzx1IDmpYWsoz-17">
          <mxGeometry width="50" height="50" relative="1" as="geometry">
            <mxPoint x="730" y="460" as="sourcePoint" />
            <mxPoint x="780" y="410" as="targetPoint" />
          </mxGeometry>
        </mxCell>
        <mxCell id="N9VV_pDzzx1IDmpYWsoz-54" value="" style="endArrow=classic;html=1;rounded=0;exitX=1;exitY=0.5;exitDx=0;exitDy=0;exitPerimeter=0;" edge="1" parent="N9VV_pDzzx1IDmpYWsoz-1" source="N9VV_pDzzx1IDmpYWsoz-6" target="N9VV_pDzzx1IDmpYWsoz-25">
          <mxGeometry width="50" height="50" relative="1" as="geometry">
            <mxPoint x="730" y="360" as="sourcePoint" />
            <mxPoint x="780" y="310" as="targetPoint" />
          </mxGeometry>
        </mxCell>
        <mxCell id="N9VV_pDzzx1IDmpYWsoz-59" value="Definição" style="swimlane;fontStyle=0;childLayout=stackLayout;horizontal=1;startSize=30;horizontalStack=0;resizeParent=1;resizeParentMax=0;resizeLast=0;collapsible=1;marginBottom=0;whiteSpace=wrap;html=1;" vertex="1" parent="N9VV_pDzzx1IDmpYWsoz-1">
          <mxGeometry x="40" y="565" width="200" height="340" as="geometry" />
        </mxCell>
        <mxCell id="N9VV_pDzzx1IDmpYWsoz-60" value="5. Considerando que teremos um alto volume de throughput e os dados estão vindo de forma estruturada, podemos utilizar o AuroraDB, que fornece suporte de forma robusta, escalável e performática para operações de escrita e leitura.&amp;nbsp;&lt;div&gt;Podemos utilizar um clone para operações de leitura dessa forma isolando operações de escrita com ganho de performance.&lt;/div&gt;&lt;div&gt;&amp;nbsp;O AuroraDb também fornece um suporte melhor para querys mais complexas e de escrita, seu custo e perfomance acabam se sobresaindo em relação ao DynamoDB por exemplo para o nosso contexto.&lt;/div&gt;" style="text;strokeColor=none;fillColor=none;align=left;verticalAlign=middle;spacingLeft=4;spacingRight=4;overflow=hidden;points=[[0,0.5],[1,0.5]];portConstraint=eastwest;rotatable=0;whiteSpace=wrap;html=1;" vertex="1" parent="N9VV_pDzzx1IDmpYWsoz-59">
          <mxGeometry y="30" width="200" height="280" as="geometry" />
        </mxCell>
        <mxCell id="N9VV_pDzzx1IDmpYWsoz-61" value="MySQL Aurora DB" style="text;strokeColor=none;fillColor=none;align=left;verticalAlign=middle;spacingLeft=4;spacingRight=4;overflow=hidden;points=[[0,0.5],[1,0.5]];portConstraint=eastwest;rotatable=0;whiteSpace=wrap;html=1;" vertex="1" parent="N9VV_pDzzx1IDmpYWsoz-59">
          <mxGeometry y="310" width="200" height="30" as="geometry" />
        </mxCell>
        <mxCell id="N9VV_pDzzx1IDmpYWsoz-62" value="2" style="ellipse;whiteSpace=wrap;html=1;aspect=fixed;strokeWidth=2;fontFamily=Tahoma;spacingBottom=4;spacingRight=2;strokeColor=#d3d3d3;" vertex="1" parent="N9VV_pDzzx1IDmpYWsoz-1">
          <mxGeometry x="310" y="428" width="20" height="20" as="geometry" />
        </mxCell>
        <mxCell id="N9VV_pDzzx1IDmpYWsoz-63" value="3" style="ellipse;whiteSpace=wrap;html=1;aspect=fixed;strokeWidth=2;fontFamily=Tahoma;spacingBottom=4;spacingRight=2;strokeColor=#d3d3d3;" vertex="1" parent="N9VV_pDzzx1IDmpYWsoz-1">
          <mxGeometry x="470" y="400.63" width="20" height="20" as="geometry" />
        </mxCell>
        <mxCell id="N9VV_pDzzx1IDmpYWsoz-34" value="Lambda de Retry Notificação" style="outlineConnect=0;dashed=0;verticalLabelPosition=bottom;verticalAlign=top;align=center;html=1;shape=mxgraph.aws3.lambda_function;fillColor=#F58534;gradientColor=none;" vertex="1" parent="N9VV_pDzzx1IDmpYWsoz-1">
          <mxGeometry x="1174.5" y="720" width="61" height="62" as="geometry" />
        </mxCell>
        <mxCell id="gZyZ-1EEiAtwJOU30CMo-10" value="" style="endArrow=classic;html=1;rounded=0;entryX=0.5;entryY=0;entryDx=0;entryDy=0;entryPerimeter=0;exitX=0.5;exitY=1;exitDx=0;exitDy=0;exitPerimeter=0;" edge="1" parent="N9VV_pDzzx1IDmpYWsoz-1" source="gZyZ-1EEiAtwJOU30CMo-6" target="N9VV_pDzzx1IDmpYWsoz-33">
          <mxGeometry width="50" height="50" relative="1" as="geometry">
            <mxPoint x="870" y="660" as="sourcePoint" />
            <mxPoint x="920" y="610" as="targetPoint" />
          </mxGeometry>
        </mxCell>
        <mxCell id="gZyZ-1EEiAtwJOU30CMo-11" value="Segundo Retry" style="endArrow=classic;html=1;rounded=0;entryX=0;entryY=0.5;entryDx=0;entryDy=0;entryPerimeter=0;" edge="1" parent="N9VV_pDzzx1IDmpYWsoz-1" source="N9VV_pDzzx1IDmpYWsoz-33" target="N9VV_pDzzx1IDmpYWsoz-34">
          <mxGeometry width="50" height="50" relative="1" as="geometry">
            <mxPoint x="870" y="660" as="sourcePoint" />
            <mxPoint x="920" y="610" as="targetPoint" />
          </mxGeometry>
        </mxCell>
        <mxCell id="gZyZ-1EEiAtwJOU30CMo-12" value="" style="endArrow=none;dashed=1;html=1;dashPattern=1 3;strokeWidth=2;rounded=0;entryX=0.5;entryY=1;entryDx=0;entryDy=0;entryPerimeter=0;" edge="1" parent="N9VV_pDzzx1IDmpYWsoz-1" source="N9VV_pDzzx1IDmpYWsoz-36" target="N9VV_pDzzx1IDmpYWsoz-34">
          <mxGeometry width="50" height="50" relative="1" as="geometry">
            <mxPoint x="870" y="660" as="sourcePoint" />
            <mxPoint x="920" y="610" as="targetPoint" />
          </mxGeometry>
        </mxCell>
        <mxCell id="gZyZ-1EEiAtwJOU30CMo-17" value="10" style="ellipse;whiteSpace=wrap;html=1;aspect=fixed;strokeWidth=2;fontFamily=Tahoma;spacingBottom=4;spacingRight=2;strokeColor=#d3d3d3;" vertex="1" parent="N9VV_pDzzx1IDmpYWsoz-1">
          <mxGeometry x="940" y="741" width="20" height="20" as="geometry" />
        </mxCell>
        <mxCell id="gZyZ-1EEiAtwJOU30CMo-18" value="11" style="ellipse;whiteSpace=wrap;html=1;aspect=fixed;strokeWidth=2;fontFamily=Tahoma;spacingBottom=4;spacingRight=2;strokeColor=#d3d3d3;" vertex="1" parent="N9VV_pDzzx1IDmpYWsoz-1">
          <mxGeometry x="1250" y="740" width="20" height="20" as="geometry" />
        </mxCell>
        <mxCell id="JIKMcr_6R5LcwhBE6lve-0" value="5.1 Utilizar clone de leitura para consultar as contas e saldo&lt;div&gt;&lt;br&gt;&lt;/div&gt;&lt;div&gt;7. Salvar a transferência realizada no DB&lt;/div&gt;" style="rounded=1;whiteSpace=wrap;html=1;" vertex="1" parent="N9VV_pDzzx1IDmpYWsoz-1">
          <mxGeometry x="386.19" y="760" width="165.12" height="110" as="geometry" />
        </mxCell>
        <mxCell id="uSQcF11PXr6B_BDpvb95-0" value="Monitoração e Logs" style="swimlane;startSize=0;" vertex="1" parent="N9VV_pDzzx1IDmpYWsoz-1">
          <mxGeometry x="1350" y="529.25" width="240" height="110" as="geometry">
            <mxRectangle x="180" y="160" width="50" height="40" as="alternateBounds" />
          </mxGeometry>
        </mxCell>
        <mxCell id="uSQcF11PXr6B_BDpvb95-1" value="CloudWatch" style="outlineConnect=0;dashed=0;verticalLabelPosition=bottom;verticalAlign=top;align=center;html=1;shape=mxgraph.aws3.cloudwatch;fillColor=#759C3E;gradientColor=none;" vertex="1" parent="uSQcF11PXr6B_BDpvb95-0">
          <mxGeometry x="20" y="29.5" width="50" height="51" as="geometry" />
        </mxCell>
        <mxCell id="uSQcF11PXr6B_BDpvb95-2" value="Grafana" style="sketch=0;points=[[0,0,0],[0.25,0,0],[0.5,0,0],[0.75,0,0],[1,0,0],[0,1,0],[0.25,1,0],[0.5,1,0],[0.75,1,0],[1,1,0],[0,0.25,0],[0,0.5,0],[0,0.75,0],[1,0.25,0],[1,0.5,0],[1,0.75,0]];points=[[0,0,0],[0.25,0,0],[0.5,0,0],[0.75,0,0],[1,0,0],[0,1,0],[0.25,1,0],[0.5,1,0],[0.75,1,0],[1,1,0],[0,0.25,0],[0,0.5,0],[0,0.75,0],[1,0.25,0],[1,0.5,0],[1,0.75,0]];outlineConnect=0;fontColor=#232F3E;fillColor=#E7157B;strokeColor=#ffffff;dashed=0;verticalLabelPosition=bottom;verticalAlign=top;align=center;html=1;fontSize=12;fontStyle=0;aspect=fixed;shape=mxgraph.aws4.resourceIcon;resIcon=mxgraph.aws4.managed_service_for_grafana;" vertex="1" parent="uSQcF11PXr6B_BDpvb95-0">
          <mxGeometry x="170" y="30" width="51" height="51" as="geometry" />
        </mxCell>
        <mxCell id="uSQcF11PXr6B_BDpvb95-3" value="" style="endArrow=none;dashed=1;html=1;dashPattern=1 3;strokeWidth=2;rounded=0;entryX=0;entryY=0.5;entryDx=0;entryDy=0;entryPerimeter=0;exitX=0.75;exitY=0.5;exitDx=0;exitDy=0;exitPerimeter=0;" edge="1" parent="uSQcF11PXr6B_BDpvb95-0" source="uSQcF11PXr6B_BDpvb95-1" target="uSQcF11PXr6B_BDpvb95-2">
          <mxGeometry width="50" height="50" relative="1" as="geometry">
            <mxPoint x="-130" y="-67" as="sourcePoint" />
            <mxPoint x="-80" y="-117" as="targetPoint" />
          </mxGeometry>
        </mxCell>
        <mxCell id="uSQcF11PXr6B_BDpvb95-4" value="" style="endArrow=none;dashed=1;html=1;dashPattern=1 3;strokeWidth=2;rounded=0;exitX=1;exitY=0.75;exitDx=0;exitDy=0;exitPerimeter=0;" edge="1" parent="N9VV_pDzzx1IDmpYWsoz-1" source="gZyZ-1EEiAtwJOU30CMo-6" target="uSQcF11PXr6B_BDpvb95-1">
          <mxGeometry width="50" height="50" relative="1" as="geometry">
            <mxPoint x="830" y="660" as="sourcePoint" />
            <mxPoint x="880" y="610" as="targetPoint" />
          </mxGeometry>
        </mxCell>
      </root>
    </mxGraphModel>
  </diagram>
</mxfile>
